<svg width="75" height="75" viewBox="0 0 75 75" fill="none" xmlns="http://www.w3.org/2000/svg">
    <path
        d="M46.4143 37.4232L73.2456 10.5919C74.384 9.41319 75.014 7.83442 74.9998 6.19569C74.9855 4.55696 74.3282 2.98939 73.1694 1.83058C72.0106 0.671784 70.443 0.0144764 68.8043 0.000236265C67.1656 -0.0140039 65.5868 0.615964 64.4081 1.75445L37.5768 28.5857L10.7456 1.75445C9.56679 0.615964 7.98802 -0.0140039 6.34929 0.000236265C4.71056 0.0144764 3.14299 0.671784 1.98419 1.83058C0.825385 2.98939 0.168077 4.55696 0.153837 6.19569C0.139597 7.83442 0.769565 9.41319 1.90805 10.5919L28.7393 37.4232L1.90805 64.2545C1.31111 64.831 0.834974 65.5207 0.507418 66.2832C0.179862 67.0457 0.00744733 67.8658 0.000235982 68.6957C-0.00697537 69.5256 0.151159 70.3486 0.465415 71.1167C0.77967 71.8848 1.24375 72.5826 1.83058 73.1694C2.41741 73.7563 3.11524 74.2203 3.88334 74.5346C4.65144 74.8489 5.47444 75.007 6.30431 74.9998C7.13418 74.9926 7.9543 74.8201 8.71683 74.4926C9.47935 74.165 10.169 73.6889 10.7456 73.092L37.5768 46.2607L64.4081 73.092C65.5868 74.2305 67.1656 74.8604 68.8043 74.8462C70.443 74.8319 72.0106 74.1746 73.1694 73.0158C74.3282 71.857 74.9855 70.2894 74.9998 68.6507C75.014 67.012 74.384 65.4332 73.2456 64.2545L46.4143 37.4232Z"
        fill="black" />
</svg>